<svg xmlns="http://www.w3.org/2000/svg" version="1.1" id="Layer_1" x="0px" y="0px" viewBox="0 0 22 18"
     style="enable-background:new 0 0 22 18;" xml:space="preserve">
<style type="text/css">
	.st0{display:none;}
	.st1{display:inline;fill-rule:evenodd;clip-rule:evenodd;fill:#199C49;}
	.st2{fill-rule:evenodd;clip-rule:evenodd;fill:#63666B;}
</style>
    <g id="Layer_2_00000082359770697941169110000016324784976548817846_" class="st0">
	<path class="st1" d="M8.1,7.7c-0.6,0.7-0.9,1.5-0.9,2.4c0,0.6,0.1,1.2,0.4,1.7s0.7,1,1.2,1.3c0.1,0.1,0.2,0.1,0.3,0.2   c0.2,0.4,0.4,0.7,0.5,1.2c0.1,0.4,0.1,0.9,0,1.3c-0.1-1.1-1.7-2.5-2.4-2.8c-0.7-0.4,0,1.3,0,1.3s-1-0.8-2.1-2.4c0,0,0,0,0-0.1   c-0.7-1-1.1-1.7-2.2-2c1-0.3,2.4,0.4,2.4,0.4C5.1,8.8,3.6,7.6,3.6,7.6C2.9,6.1,2.7,4.5,2.9,2.9C3.5,5.4,6.4,6.9,8.1,7.7z    M14.4,10.1c0-0.9-0.3-1.7-0.9-2.4c1.7-0.8,4.7-2.3,5.3-4.8c0.2,1.6-0.1,3.2-0.7,4.7c0,0-1.5,1.2-1.8,2.6c0,0,1.4-0.8,2.4-0.4   c-1,0.3-1.5,1-2.2,2v0.1c-1,1.6-2.2,2.4-2.2,2.4s0.7-1.7,0-1.3s-2.2,1.8-2.4,2.8c-0.1-0.4-0.1-0.9,0-1.3c0.1-0.4,0.3-0.8,0.5-1.2   c0.1-0.1,0.2-0.1,0.3-0.2c0.5-0.3,0.9-0.8,1.2-1.3C14.3,11.3,14.4,10.7,14.4,10.1z M10.8,12.7c1.4,0,2.5-1.1,2.5-2.5   s-1.1-2.5-2.5-2.5s-2.5,1.1-2.5,2.5C8.4,11.6,9.5,12.7,10.8,12.7z"/>
</g>
    <path class="st2" d="M11.1,0.8l2,2.3h0c-0.6-0.2-1.3-0.3-2-0.3s-1.3,0.1-2,0.3h0L11.1,0.8z M11.1,14.8c-0.7,0-1.3-0.1-2-0.3h0l2,2.3  l2-2.3h0C12.4,14.7,11.7,14.8,11.1,14.8z M3.1,8.8c0-1.9,0.6-3.6,1.7-5h2.9c-1.6,1.1-2.6,2.9-2.6,5c0,2.1,1,3.9,2.6,5H4.8  C3.7,12.4,3.1,10.7,3.1,8.8z M17.3,13.8c1.1-1.4,1.7-3.1,1.7-5s-0.6-3.6-1.7-5h-2.9c1.6,1.1,2.6,2.9,2.6,5c0,2.1-1,3.9-2.6,5H17.3z   M14.1,8.8c0,1.7-1.3,3-3,3s-3-1.3-3-3s1.3-3,3-3S14.1,7.2,14.1,8.8z"/>
</svg>