<svg width="280" height="285" viewBox="0 0 280 285" fill="none" xmlns="http://www.w3.org/2000/svg">
<g clip-path="url(#clip0_4342_436)">
<path d="M169.877 57.1048C163.45 44.1558 155.084 33.6609 144.836 27.2886C141.582 27.0269 138.286 26.8796 134.95 26.8796C87.3666 26.8796 47.2128 56.704 32.6338 94.7738C59.4249 76.1888 99.4719 61.1294 133.059 57.8901C142.855 56.9494 155.889 56.434 169.877 57.0966V57.1048Z" fill="#72C9CA"/>
<path d="M181.554 95.3791C123.337 90.741 48.6177 113.04 32.6416 154.635C36.6603 208.967 82.9941 251.83 139.56 251.83C146.307 251.83 152.906 251.217 159.308 250.047C190.438 222.955 197.062 149.572 181.554 95.3791Z" fill="#72C9CA"/>
<path d="M209.201 65.7755C209.201 65.7755 209.201 65.7755 209.192 65.7755C209.192 65.7755 209.201 65.7919 209.209 65.8V65.7837L209.201 65.7755Z" fill="#72C9CA"/>
<path d="M247.128 71.06C235.951 55.8288 214.115 38.5935 196.997 30.1599C201.944 38.5035 209.612 48.4995 213.302 58.4219C224.939 61.244 238.088 66.152 247.128 71.06Z" fill="#72C9CA"/>
<path d="M190.191 85.7185C190.282 85.7185 190.372 85.7349 190.471 85.743C190.471 85.743 190.471 85.743 190.463 85.743C190.372 85.743 190.282 85.7267 190.2 85.7185H190.191Z" fill="#72C9CA"/>
<path d="M224.363 99.6899C229.022 119.232 231.2 139.829 230.641 158.202C230.526 161.842 228.866 203.216 214.263 234.66C242.812 216.73 261.928 183.969 261.928 146.521C261.928 136.721 260.613 127.24 258.172 118.259C250.34 109.498 238.473 103.371 224.363 99.6899Z" fill="#72C9CA"/>
<path d="M209.307 66.0864C209.275 65.9882 209.242 65.89 209.201 65.7919C209.201 65.7919 209.192 65.7755 209.184 65.7673C206.341 65.2602 203.489 64.8184 200.637 64.434C194.367 63.5914 188.105 63.0434 182.007 62.7244C182.048 62.8143 182.081 62.9043 182.122 62.9943C191.006 63.4769 200.226 64.4422 209.307 66.0782V66.0864Z" fill="#B78E2E"/>
<path d="M0.172434 158.995C0.106689 147.985 3.88703 137.571 10.4698 127.944C3.78019 137.645 -0.0658923 148.14 -0.000147208 159.249C0.0655979 170.079 3.85416 180.001 9.28634 188.721C8.97405 188.05 8.66998 187.38 8.39057 186.684C3.54187 178.406 0.238179 169.097 0.172434 158.995Z" fill="#B78E2E"/>
<path d="M185.672 71.7632C191.548 71.8696 197.539 72.1804 203.513 72.7612C203.522 72.7612 203.53 72.7612 203.546 72.7612C206.373 73.0311 209.192 73.3665 211.994 73.7673C211.329 71.7469 210.638 69.7509 209.924 67.7714L183.478 66.1763C184.234 68.0086 184.973 69.8655 185.68 71.7632H185.672Z" fill="#B78E2E"/>
<path d="M182.122 63.0107C182.582 64.0496 183.026 65.113 183.47 66.1764L209.916 67.7715C209.71 67.2071 209.513 66.6509 209.308 66.0864C200.227 64.4504 190.998 63.4852 182.122 63.0026V63.0107Z" fill="#B78E2E"/>
<path d="M276.302 108.279C269.941 92.1235 256.126 81.3422 239.287 74.3074C239.402 74.4628 239.517 74.6182 239.632 74.7736C256.241 81.8166 269.834 92.5488 276.129 108.541C278.027 113.359 279.104 118.25 279.564 123.109C279.729 124.868 279.235 126.332 278.364 127.445C279.663 139.788 276.811 151.126 273.105 160.427C278.866 146.226 283.55 126.676 276.302 108.279Z" fill="#B78E2E"/>
<path d="M209.201 65.8001C209.283 65.8982 209.357 66.0046 209.431 66.1191C219.95 68.0168 230.264 70.8062 239.625 74.7735C239.509 74.6181 239.394 74.4627 239.279 74.3073C229.935 70.4054 219.654 67.6487 209.185 65.7837V65.8001H209.201Z" fill="#B78E2E"/>
<path d="M209.439 66.1109C209.365 66.0046 209.291 65.8982 209.209 65.7919C209.242 65.89 209.275 65.9882 209.316 66.0864C209.357 66.0864 209.398 66.1027 209.447 66.1109H209.439Z" fill="#B78E2E"/>
<path d="M274.658 112.369C276.679 117.506 277.846 122.553 278.364 127.445C279.235 126.332 279.728 124.868 279.564 123.109C279.104 118.25 278.027 113.359 276.129 108.541C269.833 92.5486 256.241 81.8164 239.632 74.7734C241.555 77.4156 243.363 80.1395 245.064 82.9453C258.443 89.1539 269.201 98.5037 274.666 112.369H274.658Z" fill="#B78E2E"/>
<path d="M210.08 67.5097L210.146 67.7879L209.907 67.7715C210.622 69.7511 211.313 71.747 211.978 73.7675C223.722 75.4525 235.112 78.3237 245.056 82.9373C243.355 80.1315 241.547 77.4076 239.624 74.7654C230.264 70.7981 219.942 68.0087 209.431 66.111C209.718 66.5281 209.948 66.9944 210.072 67.5097H210.08Z" fill="#B78E2E"/>
<path d="M209.915 67.7715L210.154 67.7879L210.088 67.5097C209.956 66.9944 209.735 66.5281 209.447 66.111C209.406 66.111 209.365 66.0946 209.315 66.0864C209.521 66.6427 209.718 67.2071 209.924 67.7715H209.915Z" fill="#B78E2E"/>
<path d="M32.3135 105.645C32.33 105.588 32.3546 105.53 32.3711 105.473C23.5037 112.328 15.9923 119.854 10.4697 127.944C16.0087 119.919 23.4955 112.451 32.3135 105.645Z" fill="#B78E2E"/>
<path d="M141.763 63.9514C152.447 62.8062 166.664 62.1845 181.917 62.9943C181.933 62.9043 181.966 62.8144 182.007 62.7326C166.787 61.9309 152.603 62.5444 141.944 63.6896C105.39 67.616 61.5377 82.9127 32.3798 105.465C32.3634 105.522 32.3387 105.579 32.3223 105.637C61.4802 83.1335 105.266 67.8696 141.771 63.9432L141.763 63.9514Z" fill="#B78E2E"/>
<path d="M182.007 62.7407C181.966 62.8225 181.933 62.9125 181.917 63.0025C181.983 63.0025 182.057 63.0025 182.122 63.0107C182.081 62.9207 182.048 62.8307 182.007 62.7407Z" fill="#B78E2E"/>
<path d="M8.39907 186.684C6.36919 181.621 5.15291 175.772 5.11182 168.811C5.00498 151.518 13.8641 135.747 27.9993 122.201C29.043 116.533 30.4894 111.003 32.3221 105.645C23.504 112.451 16.0173 119.919 10.4783 127.944C3.88731 137.572 0.106973 147.985 0.172719 158.995C0.238464 169.097 3.54215 178.406 8.39085 186.684H8.39907Z" fill="#B78E2E"/>
<path d="M185.672 71.7634C184.965 69.8656 184.225 68.0087 183.469 66.1764L183.034 66.1519L181.973 63.5179C181.899 63.3461 181.891 63.1662 181.916 62.9944C166.663 62.1846 152.446 62.8062 141.762 63.9514C105.257 67.8697 61.4709 83.1336 32.313 105.645C30.4803 111.003 29.0339 116.524 27.9902 122.201C55.2744 96.058 102.225 78.2337 142.346 73.9229C153.876 72.6877 169.317 71.4607 185.672 71.7634Z" fill="#B78E2E"/>
<path d="M181.974 63.5179L183.034 66.1519L183.47 66.1764C183.026 65.113 182.582 64.0496 182.122 63.0107C182.056 63.0107 181.982 63.0107 181.917 63.0026C181.884 63.1662 181.9 63.3461 181.974 63.5261V63.5179Z" fill="#B78E2E"/>
<path d="M14.8252 196.05C14.2745 195.674 13.765 195.192 13.3048 194.578C11.8913 192.697 10.5435 190.742 9.28613 188.721C14.9238 200.893 25.4101 208.386 35.313 216.288C28.9275 211.192 21.3257 204.329 14.8252 196.05Z" fill="#392513"/>
<path d="M14.825 196.05C12.5075 193.097 10.3297 189.981 8.39844 186.684C8.67785 187.38 8.98193 188.05 9.29421 188.721C10.5516 190.742 11.8994 192.697 13.3129 194.578C13.7649 195.183 14.2826 195.666 14.8332 196.05H14.825Z" fill="#392513"/>
<path d="M273.105 160.418C271.239 165.007 269.267 169.04 267.541 172.296C269.349 168.893 271.321 164.893 273.105 160.418Z" fill="#392513"/>
<path d="M278.364 127.436C275.685 130.864 269.407 130.938 267.59 125.809C266.391 122.406 264.804 119.126 262.742 116.042C260.999 113.44 258.97 111.003 256.677 108.729C256.923 109.522 257.162 110.324 257.392 111.126C259.216 113.064 260.884 115.101 262.331 117.269C274.099 134.88 270.138 156.124 267.541 172.287C269.267 169.04 271.239 165.007 273.105 160.41C276.811 151.109 279.663 139.772 278.364 127.428V127.436Z" fill="#392513"/>
<path d="M216.326 88.6713C216.433 89.0803 216.54 89.4893 216.647 89.8983C233.65 94.1028 247.95 101.113 257.4 111.125C257.17 110.324 256.932 109.522 256.685 108.729C247.12 99.2562 232.993 92.6386 216.326 88.6631V88.6713Z" fill="#392513"/>
<path d="M245.065 82.9371C249.922 90.9617 253.85 99.608 256.677 108.729C258.97 111.003 261 113.432 262.742 116.042C264.805 119.126 266.391 122.406 267.591 125.809C269.399 130.937 275.677 130.864 278.365 127.436C277.847 122.545 276.688 117.498 274.658 112.361C269.202 98.4955 258.436 89.1458 245.057 82.9371H245.065Z" fill="#392513"/>
<path d="M211.986 73.7673C213.581 78.6426 215.027 83.6243 216.326 88.6713C232.992 92.6468 247.119 99.2563 256.685 108.737C253.849 99.6162 249.929 90.9699 245.073 82.9453C235.129 78.3318 223.738 75.4524 211.995 73.7755L211.986 73.7673Z" fill="#392513"/>
<path d="M24.4162 153.678C20.4304 165.67 21.3508 178.12 24.2765 189.441C25.7804 195.249 19.1648 199.061 14.8174 196.059C21.3179 204.329 28.9197 211.2 35.3052 216.296C27.3665 201.106 17.9978 177.097 25.6489 154.095C25.879 153.408 26.1173 152.729 26.3721 152.058C26.2981 151.06 26.2406 150.062 26.1913 149.064C25.5256 150.586 24.9339 152.124 24.4079 153.686L24.4162 153.678Z" fill="#392513"/>
<path d="M190.192 85.7185C190.093 85.3667 189.987 85.0232 189.888 84.6796C126.617 79.9188 45.7995 104.197 26.1992 149.048C26.2485 150.046 26.3061 151.044 26.38 152.042C43.9586 105.481 126.156 80.5242 190.192 85.7185Z" fill="#392513"/>
<path d="M27.9988 122.193C13.8636 135.739 5.00447 151.519 5.11131 168.803C5.1524 175.772 6.36868 181.613 8.39856 186.676C10.3298 189.973 12.5076 193.089 14.8251 196.042C19.1643 199.053 25.7799 195.241 24.2842 189.425C21.3586 178.104 20.4381 165.654 24.4239 153.662C24.9417 152.099 25.5416 150.562 26.2073 149.04C26.1169 147.183 26.0675 145.318 26.0675 143.437C26.0675 136.181 26.7332 129.081 27.9988 122.185V122.193Z" fill="#392513"/>
<path d="M142.346 73.9228C102.225 78.2337 55.275 96.058 27.9908 122.201C26.7252 129.097 26.0596 136.197 26.0596 143.453C26.0596 145.334 26.1089 147.199 26.1993 149.056C45.7995 104.205 126.617 79.9188 189.888 84.6877C188.614 80.246 187.209 75.9188 185.672 71.7633C169.326 71.4606 153.876 72.6795 142.346 73.9228Z" fill="#392513"/>
<path d="M145.633 4.39271C161.535 6.78127 174.717 17.718 185.228 33.4563C188.984 34.8551 192.657 36.4338 196.224 38.1925C183.847 17.3008 167.641 2.56856 148.098 0.302696C138.689 -0.793426 116.615 -0.384426 87.2842 28.9328C115.645 3.06754 136.141 2.9612 145.633 4.39271Z" fill="#B78E2E"/>
<path d="M200.366 63.7305L206.234 64.2459C207.409 64.3522 208.461 64.9166 209.184 65.7837C209.184 65.7837 209.184 65.7837 209.193 65.7837C205.503 55.8695 201.172 46.5443 196.224 38.1925C192.658 36.4338 188.992 34.8551 185.229 33.4563C191.113 42.258 196.15 52.5648 200.366 63.7305Z" fill="#B78E2E"/>
<path d="M209.193 65.7755C208.47 64.9166 207.418 64.344 206.243 64.2376L200.375 63.7223C200.465 63.9595 200.556 64.1967 200.646 64.4421C203.498 64.8266 206.35 65.2683 209.193 65.7755Z" fill="#B78E2E"/>
<path d="M162.168 283.544C181.826 278.718 195.271 263.029 204.467 244.239C202.766 245.253 201.04 246.219 199.289 247.143C191.293 264.346 179.525 278.62 162.168 283.536V283.544Z" fill="#B78E2E"/>
<path d="M216.646 89.9066C213.819 89.2031 210.918 88.5896 207.952 88.0415C214.123 112.393 216.901 138.381 216.318 160.631C216.104 168.696 214.929 213.523 199.298 247.151C201.048 246.227 202.774 245.253 204.475 244.247C222.079 208.288 224.084 160.983 224.215 156.819C224.889 135.813 222.259 112.263 216.646 89.9147V89.9066Z" fill="#B78E2E"/>
<path d="M207.944 88.0334C210.91 88.5814 213.811 89.2031 216.638 89.8984C216.532 89.4894 216.425 89.0804 216.318 88.6714C213.491 88.0007 210.598 87.4035 207.64 86.88C207.738 87.2645 207.845 87.6489 207.944 88.0334Z" fill="#B78E2E"/>
<path d="M203.538 72.7612C205.042 77.3748 206.407 82.0946 207.639 86.8799C210.598 87.4035 213.499 88.0006 216.318 88.6714C215.019 83.6243 213.581 78.6427 211.979 73.7674C209.176 73.3666 206.357 73.0312 203.53 72.7612H203.538Z" fill="#B78E2E"/>
<path d="M145.633 4.39255C136.141 2.96104 115.645 3.06738 87.2842 28.9326C102.488 22.7976 125.285 13.2515 145.633 21.5706C148.813 22.8712 151.846 24.5481 154.747 26.5604C165.381 27.5175 175.604 29.8733 185.228 33.4562C174.717 17.7178 161.527 6.78929 145.633 4.39255Z" fill="#664224"/>
<path d="M182.007 62.7326C182.179 62.3972 182.533 62.16 182.96 62.2009L200.366 63.7305C196.158 52.5648 191.112 42.258 185.228 33.4563C175.605 29.8816 165.381 27.5176 154.747 26.5605C165.899 34.2907 175.005 47.0188 181.998 62.7326H182.007Z" fill="#664224"/>
<path d="M200.366 63.7305L182.96 62.2009C182.533 62.16 182.179 62.3972 182.007 62.7326C188.105 63.0516 194.367 63.6078 200.637 64.4422C200.547 64.205 200.457 63.9678 200.366 63.7224V63.7305Z" fill="#664224"/>
<path d="M199.289 247.143C188.918 252.632 177.634 256.624 165.71 258.832C162.398 261.761 158.848 264.215 155.034 266.112C135.952 275.601 113.171 269.826 99.5537 265.662C111.881 274.374 136.667 289.794 162.168 283.528C179.524 278.603 191.301 264.329 199.289 247.135V247.143Z" fill="#664224"/>
<path d="M216.31 160.631C216.893 138.381 214.115 112.385 207.944 88.0416C206.53 87.7799 205.108 87.5426 203.67 87.3136C202.363 87.1091 201.04 86.921 199.709 86.741C199.586 86.7246 199.471 86.7083 199.347 86.6919C196.438 86.3075 193.471 85.9966 190.472 85.7512C190.381 85.7512 190.291 85.7349 190.192 85.7267C207.253 146.382 199.964 228.517 165.719 258.84C177.635 256.632 188.927 252.64 199.298 247.151C214.921 213.523 216.104 168.705 216.318 160.631H216.31Z" fill="#664224"/>
<path d="M191.408 84.8023C190.907 84.7614 190.397 84.7205 189.888 84.6796C189.986 85.0313 190.093 85.3667 190.192 85.7184C190.282 85.7184 190.373 85.7348 190.455 85.743L191.408 84.7941V84.8023Z" fill="#392513"/>
<path d="M203.513 72.7531C197.547 72.1805 191.548 71.8696 185.672 71.7551C187.209 75.9106 188.614 80.2296 189.888 84.6796C190.397 84.7205 190.899 84.7532 191.408 84.8023L203.505 72.7613L203.513 72.7531Z" fill="#392513"/>
<path d="M191.408 84.8022L190.455 85.7511C190.455 85.7511 190.455 85.7511 190.463 85.7511C193.463 85.9965 196.43 86.3074 199.339 86.6918C199.462 86.7082 199.577 86.7246 199.7 86.7409C201.032 86.9209 202.355 87.1008 203.662 87.3135C205.1 87.5426 206.522 87.7798 207.935 88.0415C207.836 87.6571 207.73 87.2726 207.631 86.8882C202.396 85.9638 196.972 85.2767 191.4 84.8104L191.408 84.8022Z" fill="#664224"/>
<path d="M191.408 84.8022C196.98 85.2685 202.412 85.9556 207.639 86.8799C206.398 82.0946 205.042 77.3748 203.538 72.7612C203.53 72.7612 203.522 72.7612 203.505 72.7612L191.408 84.8022Z" fill="#664224"/>
<path d="M199.346 86.6919C196.437 86.3075 193.47 85.9966 190.471 85.7512C193.47 85.9966 196.437 86.3156 199.346 86.6919Z" fill="#664224"/>
<path d="M203.669 87.3054C202.362 87.1009 201.039 86.9127 199.708 86.7328C201.039 86.9127 202.362 87.0927 203.669 87.3054Z" fill="#664224"/>
</g>
<defs>
<clipPath >
<rect width="280" height="285" fill="white"/>
</clipPath>
</defs>
</svg>
