<svg width="31" height="25" viewBox="0 0 31 25" fill="none" xmlns="http://www.w3.org/2000/svg">
<path fill-rule="evenodd" clip-rule="evenodd" d="M20.6211 9.27272C21.6718 10.5367 22.2476 12.1456 22.2443 13.8083C22.2413 14.9492 21.9672 16.0721 21.4461 17.0795C20.9251 18.0869 20.1727 18.9482 19.2543 19.5888C19.0461 19.7358 18.8292 19.8694 18.6051 19.9892C18.1577 20.6469 17.8431 21.3901 17.6797 22.1747C17.5163 22.9595 17.5076 23.77 17.6539 24.5581C17.9266 22.5456 20.7866 19.9058 22.0624 19.235C23.3383 18.5642 22.0624 21.7014 22.0624 21.7014C22.0624 21.7014 24.4419 20.0527 25.8153 17.7565C26.6846 16.175 27.4439 14.5322 28.0878 12.8405L25.7307 14.102C26.3022 11.4454 29.1038 9.16926 29.1038 9.16926C30.2693 6.3827 30.7165 3.33435 30.4024 0.318359C29.2662 4.93405 23.77 7.9077 20.6211 9.27272ZM8.74918 13.9318C8.74637 12.2692 9.32211 10.6605 10.3724 9.39622C7.2299 8.0312 1.73058 5.04418 0.597607 0.441856C0.28344 3.45894 0.730658 6.50836 1.89615 9.29609C1.89615 9.29609 4.66853 11.5689 5.23989 14.2255L2.87979 12.9673C3.52837 14.6586 4.29321 16.3003 5.16846 17.88C6.54167 20.1761 8.93423 21.8248 8.93423 21.8248C8.93423 21.8248 7.6357 18.6743 8.93423 19.3619C10.2328 20.0494 13.0506 22.6793 13.3233 24.6817C13.4696 23.8935 13.4609 23.083 13.2975 22.2982C13.1341 21.5134 12.8195 20.7704 12.3721 20.1127C12.1486 19.9905 11.9319 19.8558 11.7228 19.709C10.8079 19.0668 10.059 18.2052 9.54083 17.1985C9.0227 16.1919 8.75098 15.0707 8.74918 13.9318ZM15.5568 18.7077C18.1225 18.7077 20.2023 16.5694 20.2023 13.9318C20.2023 11.2941 18.1225 9.15591 15.5568 9.15591C12.9912 9.15591 10.9113 11.2941 10.9113 13.9318C10.9113 16.5694 12.9912 18.7077 15.5568 18.7077Z" fill="#CD8837"/>
</svg>
