<svg width="27" height="20" viewBox="0 0 27 20" fill="none" xmlns="http://www.w3.org/2000/svg">
<path fill-rule="evenodd" clip-rule="evenodd" d="M6.98509 12.6452C6.98537 11.6825 7.20152 10.7319 7.61794 9.862C8.03436 8.99205 8.64066 8.22448 9.39307 7.61468C6.18627 6.49552 1.52026 4.26575 0.164856 0.5C0.164856 0.5 -0.123526 4.3143 2.18352 8.58253C2.18352 8.58253 4.63766 10.1756 5.61816 12.3226L3.71196 11.1578C4.19366 12.6885 4.78441 14.1835 5.47974 15.6316C6.58712 17.7443 8.65194 19.343 8.65194 19.343C8.65194 19.343 7.69162 16.4881 8.81919 17.1733L8.92877 17.2475C8.31192 16.6438 7.82222 15.9248 7.48809 15.1324C7.15394 14.3399 6.98199 13.4897 6.98221 12.6309L6.98509 12.6452ZM17.6873 7.58613C18.45 8.19548 19.0653 8.96613 19.488 9.84155C19.9107 10.717 20.13 11.6749 20.13 12.6452C20.1297 13.2317 20.0502 13.8155 19.8935 14.3811C19.605 15.3985 19.0693 16.3307 18.3333 17.0962C19.1668 16.8364 18.3333 19.346 18.3333 19.346C18.3333 19.346 20.3953 17.7413 21.5055 15.6344C22.2015 14.1876 22.7922 12.6935 23.2733 11.1635L21.3815 12.3055C22.3707 10.1699 24.8047 8.58253 24.8047 8.58253C27.1117 4.3143 26.8233 0.5 26.8233 0.5C25.4882 4.2315 20.8883 6.45555 17.6873 7.58613ZM18.0422 12.6452C18.0422 15.0971 16.0343 17.0847 13.5578 17.0847C11.0811 17.0847 9.07342 15.0971 9.07342 12.6452C9.07342 10.1933 11.0811 8.20567 13.5578 8.20567C16.0343 8.20567 18.0422 10.1933 18.0422 12.6452Z" fill="#80989D"/>
</svg>
