<svg width="31" height="25" viewBox="0 0 31 25" fill="none" xmlns="http://www.w3.org/2000/svg">
<path fill-rule="evenodd" clip-rule="evenodd" d="M10.384 9.33277C9.33267 10.5974 8.75655 12.2072 8.75994 13.8707C8.76302 15.0122 9.03712 16.1357 9.55844 17.1435C10.0798 18.1515 10.8325 19.0132 11.7514 19.6542C11.9598 19.8012 12.1767 19.935 12.401 20.0548C12.8486 20.7128 13.1634 21.4564 13.3268 22.2414C13.4903 23.0266 13.4991 23.8375 13.3527 24.6261C13.0798 22.6125 10.2183 19.9713 8.94183 19.3002C7.66537 18.629 8.94183 21.7679 8.94183 21.7679C8.94183 21.7679 6.78804 20.1782 4.84957 17.2407C4.82342 17.2011 4.79743 17.1615 4.77159 17.1223C3.5326 15.2438 2.63343 13.8805 0.725137 13.3546C2.57346 12.7275 5.27157 14.1646 5.27157 14.1646C4.69991 11.5066 1.89688 9.22925 1.89688 9.22925C0.730782 6.44125 0.28331 3.39133 0.597671 0.373779C1.73448 4.99185 7.23339 7.96704 10.384 9.33277ZM22.24 13.8707C22.2434 12.2072 21.6673 10.5974 20.616 9.33277C23.7667 7.96704 29.2655 4.99185 30.4024 0.373779C30.7167 3.39133 30.2692 6.44125 29.1031 9.22925C29.1031 9.22925 26.3001 11.5066 25.7285 14.1646C25.7285 14.1646 28.4265 12.7275 30.2748 13.3546C28.3665 13.8805 27.4675 15.2438 26.2284 17.1223L26.1504 17.2407C24.2119 20.1782 22.0581 21.7679 22.0581 21.7679C22.0581 21.7679 23.3346 18.629 22.0581 19.3002C20.7817 19.9713 17.9202 22.6125 17.6473 24.6261C17.5008 23.8375 17.5097 23.0266 17.6732 22.2414C17.8365 21.4564 18.1514 20.7128 18.599 20.0548C18.8233 19.935 19.0403 19.8012 19.2487 19.6542C20.1676 19.0132 20.9203 18.1515 21.4417 17.1435C21.9628 16.1357 22.237 15.0122 22.24 13.8707ZM15.5492 18.7726C18.1161 18.7726 20.1972 16.6332 20.1972 13.9943C20.1972 11.3552 18.1161 9.2159 15.5492 9.2159C12.9822 9.2159 10.9013 11.3552 10.9013 13.9943C10.9013 16.6332 12.9822 18.7726 15.5492 18.7726Z" fill="#149C3A"/>
</svg>
