<svg width="31" height="23" viewBox="0 0 31 23" fill="none" xmlns="http://www.w3.org/2000/svg">
<path fill-rule="evenodd" clip-rule="evenodd" d="M10.9475 8.69041C10.0149 9.8122 9.50386 11.2402 9.50687 12.7159C9.5096 13.7285 9.75274 14.7251 10.2152 15.6191C10.6776 16.5133 11.3454 17.2777 12.1605 17.8463C12.3453 17.9767 12.5378 18.0953 12.7367 18.2016C13.1338 18.7854 13.413 19.445 13.558 20.1413C13.703 20.8378 13.7108 21.5572 13.5809 22.2567C13.3389 20.4705 10.8005 18.1276 9.66822 17.5322C8.53589 16.9368 9.66822 19.7213 9.66822 19.7213C6.93221 18.0605 6.40254 16.483 5.87777 14.9201C5.49371 13.7762 5.11227 12.6402 3.87036 11.4852C5.77596 12.0488 6.41243 12.9766 6.41243 12.9766C6.16844 9.96944 3.05175 9.05667 3.05175 9.05667C2.65379 7.67552 2.43306 6.5493 2.23912 5.55969C1.88191 3.73704 1.61552 2.37785 0.5 0.743164C5.99344 2.23543 8.24219 4.94547 10.9475 8.69041ZM21.4932 12.7159C21.4962 11.2402 20.9852 9.81222 20.0526 8.69042C22.7578 4.94549 25.0066 2.23543 30.5 0.743181C29.3844 2.37785 29.1181 3.73705 28.7609 5.55971C28.567 6.5493 28.3462 7.67554 27.9483 9.05667C27.9483 9.05667 24.8316 9.96946 24.5876 12.9766C24.5876 12.9766 25.2241 12.0488 27.1297 11.4852C25.8876 12.6402 25.5064 13.7762 25.1222 14.9201C24.5974 16.483 24.0677 18.0605 21.3318 19.7213C21.3318 19.7213 22.4641 16.9368 21.3318 17.5322C20.1995 18.1276 17.6611 20.4705 17.419 22.2567C17.2893 21.5572 17.2969 20.8378 17.442 20.1413C17.587 19.445 17.8662 18.7854 18.2633 18.2016C18.4622 18.0953 18.6547 17.9767 18.8395 17.8463C19.6547 17.2777 20.3224 16.5133 20.7849 15.6191C21.2473 14.7251 21.4904 13.7285 21.4932 12.7159ZM15.5578 17.0642C17.8349 17.0642 19.6809 15.1665 19.6809 12.8255C19.6809 10.4845 17.8349 8.58675 15.5578 8.58675C13.2807 8.58675 11.4348 10.4845 11.4348 12.8255C11.4348 15.1665 13.2807 17.0642 15.5578 17.0642Z" fill="#8141EB"/>
</svg>
