<svg width="31" height="25" viewBox="0 0 31 25" fill="none" xmlns="http://www.w3.org/2000/svg">
<path fill-rule="evenodd" clip-rule="evenodd" d="M20.621 9.27274C21.6718 10.5367 22.2476 12.1457 22.2442 13.8083C22.2412 14.9493 21.9672 16.0722 21.4461 17.0795C20.9252 18.087 20.1729 18.9482 19.2544 19.5889C19.0462 19.7358 18.8293 19.8695 18.6052 19.9893C18.1577 20.647 17.843 21.3902 17.6798 22.1748C17.5163 22.9596 17.5075 23.77 17.6539 24.5582C17.9266 22.5457 20.7867 19.9058 22.0624 19.235C23.3383 18.5642 22.0624 21.7015 22.0624 21.7015C22.0624 21.7015 24.4421 20.0528 25.8153 17.7565C26.6846 16.1751 27.4441 14.5322 28.0878 12.8405L25.7309 14.1021C26.3022 11.4454 29.1038 9.16928 29.1038 9.16928C30.2693 6.38271 30.7165 3.33436 30.4024 0.318359C29.2662 4.93406 23.7702 7.90772 20.621 9.27274ZM8.7492 13.9319C8.74639 12.2693 9.32212 10.6605 10.3724 9.39624C7.22992 8.03122 1.73059 5.04419 0.597613 0.441861C0.283432 3.45895 0.730656 6.50837 1.89615 9.29611C1.89615 9.29611 4.66854 11.5689 5.23989 14.2256L2.8798 12.9673C3.52839 14.6586 4.29322 16.3003 5.16848 17.88C6.54169 20.1761 8.93424 21.8248 8.93424 21.8248C8.93424 21.8248 7.6357 18.6744 8.93424 19.3619C10.2328 20.0494 13.0506 22.6793 13.3233 24.6817C13.4697 23.8936 13.4609 23.0831 13.2975 22.2983C13.1341 21.5135 12.8195 20.7705 12.3721 20.1128C12.1487 19.9906 11.9319 19.8558 11.7229 19.709C10.8079 19.0669 10.059 18.2052 9.54086 17.1985C9.02273 16.192 8.751 15.0707 8.7492 13.9319ZM15.5569 18.7077C18.1225 18.7077 20.2023 16.5695 20.2023 13.9319C20.2023 11.2942 18.1225 9.15593 15.5569 9.15593C12.9912 9.15593 10.9113 11.2942 10.9113 13.9319C10.9113 16.5695 12.9912 18.7077 15.5569 18.7077Z" fill="#25ACD6"/>
</svg>
