<svg width="29" height="21" viewBox="0 0 29 21" fill="none" xmlns="http://www.w3.org/2000/svg">
<path fill-rule="evenodd" clip-rule="evenodd" d="M7.4854 13.7715C7.48549 12.7522 7.71428 11.7456 8.15526 10.8244C8.59625 9.90329 9.23839 9.09059 10.0353 8.44506C6.6395 7.26006 1.69846 4.89913 0.263192 0.911865C0.263192 0.911865 -0.0421857 4.95054 2.40084 9.46984C2.40084 9.46984 4.99961 11.1567 6.0379 13.4299L4.01935 12.1965C4.52946 13.8173 5.15501 15.4003 5.89132 16.9335C7.06397 19.1674 9.25049 20.8633 9.25049 20.8633C9.25049 20.8633 8.23358 17.8404 9.42455 18.566C9.46563 18.59 9.50539 18.6163 9.54365 18.6445C8.89044 18.0053 8.37188 17.244 8.01804 16.405C7.66422 15.5659 7.48212 14.6656 7.48235 13.7564L7.4854 13.7715ZM18.8159 8.41483C19.5606 9.01035 20.1728 9.75177 20.6143 10.5926C21.0558 11.4334 21.317 12.3555 21.3816 13.301C21.4462 14.2464 21.3126 15.1949 20.9893 16.0869C20.666 16.9788 20.1599 17.7951 19.5029 18.4843C20.3854 18.2092 19.5029 20.8665 19.5029 20.8665C19.5029 20.8665 21.6895 19.1644 22.8622 16.9365C23.5947 15.4028 24.2173 13.8199 24.725 12.1996L22.7217 13.4088C23.7782 11.1506 26.3526 9.46984 26.3526 9.46984C28.7803 4.95054 28.4902 0.911865 28.4902 0.911865C27.0763 4.86287 22.2085 7.21774 18.8159 8.41483ZM19.1946 13.7715C19.1946 16.3676 17.0685 18.4722 14.4459 18.4722C11.8233 18.4722 9.69728 16.3676 9.69728 13.7715C9.69728 11.1754 11.8233 9.07081 14.4459 9.07081C17.0685 9.07081 19.1946 11.1754 19.1946 13.7715Z" fill="#51484A"/>
</svg>
