<svg width="27" height="20" viewBox="0 0 27 20" fill="none" xmlns="http://www.w3.org/2000/svg">
<path fill-rule="evenodd" clip-rule="evenodd" d="M6.98509 12.7123C6.98537 11.7195 7.20152 10.7392 7.61794 9.84206C8.03436 8.94493 8.64066 8.15337 9.39307 7.52452C6.18627 6.37038 1.52026 4.07093 0.164856 0.1875C0.164856 0.1875 -0.123526 4.121 2.18352 8.52261C2.18352 8.52261 4.63766 10.1655 5.61816 12.3796L3.71196 11.1783C4.19366 12.7569 4.78441 14.2986 5.47974 15.7919C6.58712 17.9707 8.65194 19.6193 8.65194 19.6193C8.65194 19.6193 7.69162 16.6752 8.81919 17.3819L8.92877 17.4584C8.31192 16.8358 7.82222 16.0944 7.48809 15.2771C7.15394 14.4599 6.98199 13.5831 6.98221 12.6975L6.98509 12.7123ZM17.6873 7.49508C18.4505 8.12331 19.0662 8.91794 19.4893 9.8207C19.9123 10.7235 20.1323 11.7114 20.1328 12.7123C20.1315 13.3172 20.051 13.9192 19.8935 14.5023C19.605 15.5516 19.0693 16.5129 18.3333 17.3023C19.1668 17.0344 18.3333 19.6224 18.3333 19.6224C18.3333 19.6224 20.3953 17.9676 21.5055 15.7949C22.2015 14.3029 22.7922 12.762 23.2733 11.1842L21.3815 12.3619C22.3707 10.1596 24.8047 8.52261 24.8047 8.52261C27.1117 4.121 26.8233 0.1875 26.8233 0.1875C25.4882 4.03561 20.8883 6.32916 17.6873 7.49508ZM18.042 12.7122C18.042 15.2408 16.0343 17.2905 13.5578 17.2905C11.0811 17.2905 9.07341 15.2408 9.07341 12.7122C9.07341 10.1837 11.0811 8.13397 13.5578 8.13397C16.0343 8.13397 18.042 10.1837 18.042 12.7122Z" fill="#8C513A"/>
</svg>
