<svg width="31" height="29" viewBox="0 0 31 29" fill="none" xmlns="http://www.w3.org/2000/svg">
<path d="M12.9051 28.5608C13.4447 27.1493 13.8949 25.7006 14.2528 24.2248C13.1651 23.9884 12.1601 23.4346 11.3497 22.6251C10.5393 21.8154 9.95523 20.7816 9.66245 19.6389C9.36966 18.4961 9.37967 17.2891 9.69132 16.152C10.003 15.0149 10.6041 13.9924 11.4277 13.1982C9.05307 10.5738 4.94837 5.24543 5.68701 0.439209C5.68701 0.439209 3.53262 3.86925 3.50346 9.14919C3.50346 9.14919 4.75722 11.6111 4.79934 14.0107C3.07259 12.3683 1.23567 10.0136 1.19356 7.44107C1.19356 7.44107 1.11257 7.65545 1.00565 8.0358L0.756192 9.13191C0.61534 9.92199 0.540537 10.7239 0.532663 11.5281C0.489112 12.3769 0.489112 13.2276 0.532663 14.0764C0.636788 16.3867 1.16744 18.6522 2.0942 20.743C2.0942 20.743 2.53154 20.8397 3.22485 21.0368C5.03583 21.5278 7.55633 22.42 9.55521 23.841L9.73987 23.9758C11.2982 25.0926 12.5325 26.5242 12.7334 28.3118" fill="#A4584E"/>
<path d="M19.55 17.9492C19.5506 17.084 19.3108 16.238 18.8608 15.5182C18.4109 14.7985 17.771 14.2373 17.0223 13.9057C16.2735 13.5741 15.4494 13.487 14.6542 13.6554C13.859 13.8238 13.1285 14.2401 12.555 14.8517C11.9815 15.4633 11.5909 16.2426 11.4325 17.0912C11.2741 17.9397 11.3551 18.8194 11.6652 19.6189C11.9753 20.4183 12.5005 21.1016 13.1746 21.5823C13.8486 22.0632 14.641 22.3199 15.4517 22.3199C16.5378 22.3189 17.5792 21.8583 18.3475 21.0388C19.1158 20.2196 19.5483 19.1084 19.55 17.9492Z" fill="#9D48E0"/>
<path d="M18.0977 28.5608C17.5582 27.1493 17.1079 25.7006 16.75 24.2248C17.8377 23.9884 18.8426 23.4346 19.653 22.6251C20.4635 21.8154 21.0475 20.7816 21.3403 19.6389C21.6332 18.4961 21.6231 17.2891 21.3115 16.152C20.9997 15.0149 20.3986 13.9924 19.5751 13.1982C21.9496 10.5738 26.0545 5.24543 25.3158 0.439209C25.3158 0.439209 27.4701 3.86925 27.4962 9.14919C27.4962 9.14919 26.2455 11.6111 26.2001 14.0107C27.927 12.3683 29.7639 10.0136 29.8059 7.44107C29.8059 7.44107 29.8871 7.65545 29.9939 8.0358L30.2401 9.12499C30.3839 9.9147 30.4598 10.7167 30.4669 11.5212C30.5104 12.37 30.5104 13.2207 30.4669 14.0695C30.3659 16.379 29.8385 18.6445 28.915 20.736C28.915 20.736 28.4744 20.8328 27.7843 21.0298C25.9701 21.5208 23.4528 22.413 21.454 23.8341L21.2661 23.9689C19.7078 25.0857 18.4734 26.5173 18.2727 28.3049" fill="#A4584E"/>
</svg>
